<svg width="45" height="45" viewBox="0 0 45 45" fill="none" xmlns="http://www.w3.org/2000/svg">
<circle cx="2.5" cy="2.5" r="2.5" fill="white"/>
<circle cx="12.5" cy="2.5" r="2.5" fill="white"/>
<circle cx="22.5" cy="2.5" r="2.5" fill="white"/>
<circle cx="32.5" cy="2.5" r="2.5" fill="white"/>
<circle cx="42.5" cy="2.5" r="2.5" fill="white"/>
<circle cx="2.5" cy="12.5" r="2.5" fill="white"/>
<circle cx="12.5" cy="12.5" r="2.5" fill="white"/>
<circle cx="22.5" cy="12.5" r="2.5" fill="white"/>
<circle cx="32.5" cy="12.5" r="2.5" fill="white"/>
<circle cx="42.5" cy="12.5" r="2.5" fill="white"/>
<circle cx="2.5" cy="22.5" r="2.5" fill="white"/>
<circle cx="12.5" cy="22.5" r="2.5" fill="white"/>
<circle cx="22.5" cy="22.5" r="2.5" fill="white"/>
<circle cx="32.5" cy="22.5" r="2.5" fill="white"/>
<circle cx="42.5" cy="22.5" r="2.5" fill="white"/>
<circle cx="2.5" cy="32.5" r="2.5" fill="white"/>
<circle cx="12.5" cy="32.5" r="2.5" fill="white"/>
<circle cx="22.5" cy="32.5" r="2.5" fill="white"/>
<circle cx="32.5" cy="32.5" r="2.5" fill="white"/>
<circle cx="42.5" cy="32.5" r="2.5" fill="white"/>
<circle cx="2.5" cy="42.5" r="2.5" fill="white"/>
<circle cx="12.5" cy="42.5" r="2.5" fill="white"/>
<circle cx="22.5" cy="42.5" r="2.5" fill="white"/>
<circle cx="32.5" cy="42.5" r="2.5" fill="white"/>
<circle cx="42.5" cy="42.5" r="2.5" fill="white"/>
</svg>
