<svg width="23" height="22" viewBox="0 0 23 22" fill="none" xmlns="http://www.w3.org/2000/svg">
<path fill-rule="evenodd" clip-rule="evenodd" d="M22.4947 11C22.4947 17.0751 17.5816 22 11.521 22C5.46045 22 0.547363 17.0751 0.547363 11C0.547363 4.92487 5.46045 0 11.521 0C17.5816 0 22.4947 4.92487 22.4947 11ZM18.0708 10.6655H16.2337V8.73438C16.2337 8.58704 16.12 8.46721 15.9801 8.46721H15.457C15.3161 8.46721 15.2024 8.58704 15.2024 8.73438V10.6655H13.3653C13.2254 10.6655 13.1112 10.7856 13.1112 10.9332V11.4832C13.1112 11.6308 13.2254 11.7504 13.3653 11.7504H15.2024V13.6826C15.2024 13.8302 15.3161 13.9498 15.457 13.9498H15.9801C16.12 13.9498 16.2337 13.8302 16.2337 13.6826V11.7502H18.0708C18.2107 11.7502 18.3249 11.6306 18.3249 11.483V10.933C18.3249 10.7854 18.2107 10.6655 18.0708 10.6655ZM11.1535 11.5198C11.1596 11.6494 11.5108 12.0713 11.8972 12.3591C12.7984 13.0294 13.1342 13.687 13.1344 14.7852C13.1344 15.9298 12.3061 16.9213 11.0251 17.3124C10.6143 17.4374 10.1699 17.5006 9.70377 17.5006C9.18507 17.5006 8.68544 17.4376 8.22054 17.3142C7.31984 17.0751 6.65342 16.6222 6.34308 16.0385C6.20931 15.786 6.14108 15.5173 6.14108 15.238C6.14108 14.9508 6.20662 14.66 6.33525 14.3722C6.82901 13.266 8.12956 12.5226 9.57049 12.5226H9.61207C9.49468 12.3061 9.4377 12.0821 9.4377 11.8456C9.4377 11.728 9.45261 11.6082 9.48221 11.4866C7.9706 11.4501 6.83977 10.2868 6.83977 8.75187C6.83977 7.66852 7.66344 6.61321 8.84122 6.18609C9.19387 6.05855 9.55313 5.99298 9.90676 5.99298H13.1388C13.2491 5.99298 13.346 6.06807 13.3804 6.17812C13.4147 6.28844 13.377 6.40904 13.2873 6.47667L12.5646 7.02721C12.5218 7.06012 12.4692 7.07761 12.4157 7.07761H12.1567C12.4905 7.49881 12.6866 8.09847 12.6866 8.77347C12.6866 9.51789 12.3281 10.2225 11.6771 10.7584C11.1736 11.1708 11.1535 11.2837 11.1535 11.5198ZM7.81531 14.8732C7.81531 14.0742 8.78057 13.3735 9.88083 13.3735H9.91042C10.1498 13.3766 10.3834 13.4136 10.6035 13.4846C10.6739 13.5356 10.7419 13.5844 10.8074 13.6313L10.8219 13.6417L10.8234 13.6428C11.3322 14.0073 11.6684 14.2482 11.762 14.6345C11.784 14.732 11.795 14.8294 11.795 14.9238C11.795 15.9187 11.0894 16.423 9.69717 16.423C8.64191 16.423 7.81531 15.7426 7.81531 14.8732ZM9.46655 7.0087C9.21368 7.0087 8.98845 7.11772 8.81652 7.32421C8.55045 7.64332 8.43795 8.14861 8.50814 8.71072C8.63311 9.71615 9.33132 10.585 10.031 10.6077H10.0425H10.043C10.3061 10.6077 10.5282 10.4986 10.7006 10.2916C10.9701 9.96867 11.0894 9.43869 11.0188 8.87504C10.8931 7.86832 10.2095 7.03132 9.49517 7.00921L9.46655 7.0087Z" fill="#252627"/>
</svg>
