<svg width="22" height="22" viewBox="0 0 22 22" fill="none" xmlns="http://www.w3.org/2000/svg">
<path fill-rule="evenodd" clip-rule="evenodd" d="M11.0263 22C17.0869 22 22 17.0751 22 11C22 4.92487 17.0869 0 11.0263 0C4.9657 0 0.0526123 4.92487 0.0526123 11C0.0526123 17.0751 4.9657 22 11.0263 22ZM7.17084 9.42144H8.90105V14.7193H7.17084V9.42144ZM9.015 7.7826C9.00377 7.26314 8.63927 6.8675 8.04738 6.8675C7.45549 6.8675 7.06853 7.26314 7.06853 7.7826C7.06853 8.29129 7.44405 8.69833 8.02492 8.69833H8.03598C8.63927 8.69833 9.015 8.29129 9.015 7.7826ZM13.1487 9.29703C14.2873 9.29703 15.1408 10.0544 15.1408 11.6817L15.1408 14.7193H13.4106V11.8849C13.4106 11.173 13.1603 10.6872 12.5339 10.6872C12.0559 10.6872 11.7712 11.0147 11.6461 11.331C11.6004 11.4444 11.5892 11.6023 11.5892 11.7607V14.7194H9.85875C9.85875 14.7194 9.88156 9.9187 9.85875 9.42158H11.5892V10.172C11.8188 9.81125 12.2301 9.29703 13.1487 9.29703Z" fill="#3759F0"/>
</svg>
