<svg width="112" height="55" viewBox="0 0 112 55" fill="none" xmlns="http://www.w3.org/2000/svg">
<rect x="3" y="52" width="106" height="3" fill="white"/>
<path fill-rule="evenodd" clip-rule="evenodd" d="M3 0H63V3H3V0Z" fill="white"/>
<path fill-rule="evenodd" clip-rule="evenodd" d="M3.5 0L3.5 55H0.5L0.5 0L3.5 0Z" fill="white"/>
<path fill-rule="evenodd" clip-rule="evenodd" d="M15.625 18.475H39.225L31.2 36H30.35L27.425 29.575L24.475 36H23.625L15.625 18.475ZM24.175 28.325L25.725 25.375L24.05 21.975H21.15L24.175 28.325ZM30.775 28.175L33.7 21.975H27.875L30.775 28.175ZM58.3 18.475H59.525V36H42.475V18.475H43.675L51 25.125L58.3 18.475ZM45.975 32.5H56.025V25.275L51 29.85L45.975 25.275V32.5ZM62.775 18.475H86.375L78.35 36H77.5L74.575 29.575L71.625 36H70.775L62.775 18.475ZM71.325 28.325L72.875 25.375L71.2 21.975H68.3L71.325 28.325ZM77.925 28.175L80.85 21.975H75.025L77.925 28.175ZM96.85 21.975V18.475H89.625V21.975H91.5V32.5H89.625V36H96.85V32.5H95V21.975H96.85Z" fill="white"/>
</svg>
