<svg width="23" height="22" viewBox="0 0 23 22" fill="none" xmlns="http://www.w3.org/2000/svg">
<path fill-rule="evenodd" clip-rule="evenodd" d="M11.7474 22C17.808 22 22.7211 17.0751 22.7211 11C22.7211 4.92487 17.808 0 11.7474 0C5.68677 0 0.773682 4.92487 0.773682 11C0.773682 17.0751 5.68677 22 11.7474 22ZM11.7051 10.2395L11.6825 9.85892C11.6145 8.87241 12.211 7.97134 13.1548 7.62178C13.5021 7.4975 14.091 7.48196 14.476 7.59071C14.627 7.63732 14.9139 7.79268 15.1178 7.9325L15.4877 8.18884L15.8954 8.05678C16.1219 7.98687 16.4239 7.87035 16.5598 7.79268C16.6882 7.72277 16.8014 7.68393 16.8014 7.70723C16.8014 7.83928 16.5221 8.28982 16.288 8.53839C15.9709 8.88794 16.0615 8.91901 16.7033 8.68598C17.0883 8.55393 17.0959 8.55393 17.0204 8.70152C16.9751 8.77919 16.741 9.05107 16.4919 9.29964C16.0691 9.72687 16.0464 9.77348 16.0464 10.1308C16.0464 10.6823 15.7897 11.832 15.533 12.4612C15.0574 13.6419 14.0381 14.8614 13.0189 15.4751C11.5843 16.3373 9.67419 16.5548 8.06603 16.0499C7.52998 15.879 6.60888 15.444 6.60888 15.3663C6.60888 15.343 6.88823 15.312 7.22798 15.3042C7.93768 15.2887 8.64739 15.0867 9.25139 14.7294L9.65909 14.4808L9.19099 14.3177C8.52659 14.0846 7.93013 13.5487 7.77913 13.0437C7.73383 12.8806 7.74893 12.8729 8.17173 12.8729L8.60964 12.8651L8.23968 12.6864C7.80178 12.4612 7.40163 12.0805 7.20533 11.6921C7.06188 11.4125 6.88068 10.7056 6.93353 10.6512C6.94863 10.6279 7.10718 10.6746 7.28838 10.7367C7.80933 10.9309 7.87728 10.8843 7.57528 10.558C7.00903 9.96768 6.83538 9.08991 7.10718 8.25875L7.23553 7.88589L7.73383 8.3908C8.75309 9.40839 9.95354 10.0143 11.3276 10.1929L11.7051 10.2395Z" fill="#252627"/>
</svg>
